<svg id="Capa_1" enable-background="new 0 0 512 512" height="512" viewBox="0 0 512 512" width="512" xmlns="http://www.w3.org/2000/svg"><g><path d="m243.699 51.624h24.602c4.143 0 7.5-3.358 7.5-7.5s-3.357-7.5-7.5-7.5h-24.602c-4.143 0-7.5 3.358-7.5 7.5s3.358 7.5 7.5 7.5z"/><path d="m264.712 276.297c4.143 0 7.5-3.357 7.5-7.5s-3.357-7.5-7.5-7.5h-17.423c-4.143 0-7.5 3.357-7.5 7.5s3.357 7.5 7.5 7.5z"/><path d="m280.627 204.464c-5.257-8.698-14.463-13.891-24.626-13.891-10.164 0-19.37 5.193-24.627 13.891l-10.211 16.894c-2.143 3.545-1.006 8.155 2.539 10.298 3.547 2.142 8.156 1.005 10.299-2.539l10.211-16.894c2.517-4.164 6.924-6.649 11.789-6.649 4.864 0 9.271 2.486 11.788 6.649l29.887 49.45c2.657 4.395 2.657 9.855 0 14.25l-29.887 49.449c-2.517 4.164-6.924 6.649-11.788 6.649-4.865 0-9.272-2.485-11.789-6.649l-29.888-49.449c-2.657-4.395-2.657-9.855 0-14.25l3.701-6.124c2.143-3.545 1.006-8.155-2.539-10.298-3.546-2.143-8.156-1.006-10.299 2.539l-3.701 6.124c-5.549 9.181-5.549 20.587 0 29.769l29.888 49.449c5.257 8.697 14.463 13.89 24.627 13.89 10.163 0 19.369-5.192 24.626-13.89l29.887-49.449c5.549-9.182 5.549-20.588 0-29.769z"/><path d="m481.556 194.842-16.217-108.35c-.007-.047-.015-.095-.022-.143-2.715-16.025-12.984-29.992-27.472-37.361-.162-.083-.328-.159-.496-.23-22.86-9.601-94.156-39.546-114.696-48.173-1.933-.811-4.117-.777-6.023.095-40.797 18.658-80.46 18.658-121.257 0-1.906-.872-4.091-.906-6.023-.095-20.541 8.627-91.86 38.581-114.698 48.173-.168.071-.334.147-.496.23-14.487 7.369-24.756 21.336-27.471 37.361-.008.048-.016.095-.022.143l-16.218 108.35c-.566 3.784 1.806 7.387 5.505 8.362l55.797 14.713v273.604c0 11.292 9.187 20.479 20.479 20.479h20.093c4.143 0 7.5-3.357 7.5-7.5s-3.357-7.5-7.5-7.5h-20.093c-3.021 0-5.479-2.458-5.479-5.479v-15.375h298.508v15.375c0 3.021-2.458 5.479-5.479 5.479h-237.471c-4.143 0-7.5 3.357-7.5 7.5s3.357 7.5 7.5 7.5h237.471c11.292 0 20.479-9.187 20.479-20.479v-273.604l55.797-14.713c3.698-.975 6.07-4.578 5.504-8.362zm-169.352-176.044c-.454 14.597-6.406 28.192-16.906 38.446-10.931 10.674-25.384 16.368-40.635 15.989-14.769-.351-28.585-6.365-38.906-16.934-9.9-10.139-15.519-23.397-15.961-37.501 37.344 14.314 75.063 14.315 112.408 0zm108.05 183.607v-36.331c0-4.142-3.357-7.5-7.5-7.5s-7.5 3.358-7.5 7.5v295.073h-298.508v-295.073c0-4.142-3.357-7.5-7.5-7.5s-7.5 3.358-7.5 7.5v36.331l-45.473-11.99 15.212-101.628c1.929-11.251 9.108-21.064 19.24-26.311l79.805-33.519c2.572 20.789 11.795 40.116 26.608 55.286 17.66 18.085 41.303 28.376 66.577 28.978.772.018 1.548.027 2.319.027 25.662 0 49.804-9.995 67.982-28.148.203-.203.399-.411.595-.62l.228-.24c2.893-2.964 2.834-7.713-.13-10.605-2.966-2.894-7.715-2.836-10.606.13-.148.152-.294.307-.439.462-.084.089-.166.18-.25.263-15.342 15.321-35.72 23.759-57.384 23.759-.651 0-1.31-.008-1.961-.023-21.332-.508-41.291-9.195-56.198-24.461-13.5-13.824-21.504-31.738-22.872-50.884l9.796-4.115c.439 18.055 7.57 35.046 20.23 48.011 13.072 13.388 30.574 21.005 49.28 21.451.584.014 1.165.021 1.746.021 18.698 0 36.298-7.161 49.726-20.273 13.423-13.107 20.977-30.526 21.427-49.209l9.811 4.121c-.695 9.843-3.132 19.336-7.278 28.282-1.742 3.758-.107 8.217 3.65 9.958 1.021.473 2.094.697 3.149.697 2.831 0 5.541-1.611 6.81-4.348 4.209-9.082 6.931-18.634 8.146-28.509l79.782 33.509c10.132 5.246 17.312 15.059 19.24 26.311l15.211 101.627z"/></g></svg>